<mxfile host="app.diagrams.net" modified="2024-05-16T15:13:59.775Z" agent="Mozilla/5.0 (Windows NT 10.0; Win64; x64) AppleWebKit/537.36 (KHTML, like Gecko) Chrome/124.0.0.0 Safari/537.36 Edg/124.0.0.0" version="24.2.1" etag="_9481wR4yz4bwRxgph-L" type="github">
  <diagram name="Page-1" id="3IMbqzGj2EDt-Y3a-cvN">
    <mxGraphModel>
      <root>
        <mxCell id="0" />
        <mxCell id="1" parent="0" />
      </root>
    </mxGraphModel>
  </diagram>
</mxfile>
